<?xml version="1.0" standalone="no"?>
<!DOCTYPE svg PUBLIC "-//W3C//DTD SVG 20010904//EN"
 "http://www.w3.org/TR/2001/REC-SVG-20010904/DTD/svg10.dtd">
<svg version="1.0" xmlns="http://www.w3.org/2000/svg"
 width="792.000000pt" height="792.000000pt" viewBox="0 0 792.000000 792.000000"
 preserveAspectRatio="xMidYMid meet">
<metadata>
Created by potrace 1.14, written by Peter Selinger 2001-2017
</metadata>
<g transform="translate(0.000000,792.000000) scale(0.100000,-0.100000)"
fill="#000000" stroke="none">
<path d="M730 5636 c-11 -5 -23 -18 -27 -30 -3 -12 -6 -518 -5 -1126 2 -1881
0 -1748 22 -1789 18 -36 78 -94 245 -237 44 -38 82 -71 85 -74 9 -9 105 -86
115 -92 7 -4 10 225 10 678 0 376 3 684 7 684 4 0 47 -18 95 -41 207 -95 306
-121 491 -125 240 -5 456 72 672 239 70 55 289 271 410 406 41 46 84 93 95
105 20 23 105 120 145 166 51 59 147 167 168 188 12 13 22 25 22 27 0 14 335
355 349 355 4 0 19 10 32 21 37 33 141 99 156 99 7 0 13 4 13 9 0 9 58 31 143
56 47 13 177 14 228 2 14 -4 56 -21 94 -38 124 -56 191 -45 275 44 25 27 82
86 128 132 50 50 80 88 77 96 -9 22 -114 94 -200 137 -154 77 -302 113 -465
115 -59 1 -189 -13 -214 -23 -13 -5 -26 -7 -28 -4 -8 7 -160 -46 -243 -85 -67
-32 -238 -139 -255 -160 -3 -3 -27 -24 -55 -46 -85 -68 -268 -256 -400 -410
-33 -38 -62 -72 -65 -75 -3 -3 -32 -36 -65 -75 -33 -38 -71 -82 -85 -96 -14
-15 -41 -45 -60 -69 -19 -23 -46 -54 -60 -69 -14 -15 -59 -65 -100 -111 -172
-192 -362 -370 -395 -370 -4 0 -19 -8 -33 -18 -55 -38 -157 -61 -277 -64 -311
-6 -598 271 -597 577 0 211 91 390 264 520 47 35 168 82 238 92 35 5 161 4
185 -1 208 -42 361 -159 445 -338 31 -66 47 -134 56 -233 3 -33 7 -76 9 -95 2
-19 4 -39 4 -44 1 -12 17 5 126 139 49 61 99 121 112 135 125 141 153 182 153
219 0 54 -87 217 -165 310 -210 252 -522 397 -840 392 -81 -1 -95 -2 -175 -15
-64 -11 -163 -37 -174 -47 -6 -5 -16 -9 -23 -9 -7 0 -56 -21 -108 -46 -53 -25
-99 -44 -102 -40 -3 3 -5 32 -5 65 0 93 0 93 -232 95 -108 0 -205 -3 -216 -8z"/>
<path d="M6377 5643 c-2 -1 -29 -5 -60 -8 -81 -7 -126 -15 -155 -26 -13 -5
-28 -7 -33 -3 -5 3 -9 0 -9 -7 0 -7 -3 -10 -6 -6 -6 5 -24 0 -99 -29 -11 -4
-22 -8 -25 -9 -53 -18 -186 -94 -242 -137 -21 -17 -38 -28 -38 -26 0 15 -201
-180 -305 -297 -38 -43 -77 -86 -85 -94 -8 -9 -40 -46 -70 -81 -30 -36 -59
-70 -65 -76 -5 -6 -28 -32 -50 -58 -22 -27 -52 -61 -67 -77 -16 -16 -28 -34
-28 -39 0 -4 -4 -10 -9 -12 -4 -1 -41 -41 -80 -87 -40 -46 -77 -89 -84 -96 -7
-7 -24 -28 -39 -47 -66 -84 -252 -260 -344 -325 -37 -27 -135 -83 -145 -83 -4
0 -20 -5 -36 -12 -103 -42 -239 -52 -348 -25 -53 13 -163 59 -190 79 -55 42
-124 113 -154 158 -82 122 -105 203 -116 413 -1 26 -4 50 -7 53 -5 4 -42 -35
-163 -176 -68 -79 -122 -143 -155 -185 -17 -22 -35 -42 -39 -45 -3 -3 -15 -18
-25 -34 -17 -27 -16 -82 2 -111 4 -5 7 -12 7 -15 2 -12 50 -99 84 -150 164
-251 470 -443 756 -477 83 -10 258 -6 320 7 28 6 64 13 79 16 107 19 301 115
405 199 96 78 353 338 482 486 46 53 135 153 150 168 8 9 58 66 109 126 102
120 101 119 192 219 110 121 205 211 318 299 114 90 290 156 402 151 90 -3
136 -14 216 -50 29 -13 57 -24 61 -24 5 0 11 -3 13 -8 2 -4 47 -34 101 -66 96
-58 97 -59 118 -40 12 10 85 80 161 155 160 156 156 143 64 224 -165 143 -355
243 -516 270 -79 13 -246 25 -253 18z"/>
<path d="M5778 4635 c-18 -21 -51 -56 -73 -80 -22 -23 -76 -82 -120 -130 -44
-48 -99 -108 -122 -133 -47 -51 -59 -85 -44 -125 6 -15 8 -27 5 -27 -3 0 3
-12 13 -27 11 -16 25 -41 31 -57 52 -119 203 -287 347 -384 93 -64 278 -145
360 -158 11 -2 29 -5 40 -8 143 -31 324 -26 475 14 115 30 293 115 349 166 14
13 29 24 32 24 3 0 17 10 31 23 13 12 45 40 71 63 l47 40 -154 149 c-85 81
-161 152 -168 156 -24 16 -45 9 -104 -36 -32 -25 -64 -48 -69 -52 -26 -19
-127 -64 -155 -69 -8 -2 -32 -7 -53 -13 -53 -13 -174 -6 -244 14 -171 48 -318
165 -385 305 -49 102 -60 147 -65 270 -3 58 -7 106 -8 108 -2 2 -18 -13 -37
-33z"/>
</g>
</svg>
