<svg id="Layer_1" data-name="Layer 1" xmlns="http://www.w3.org/2000/svg" viewBox="0 0 792 612"><defs><style>.cls-1{fill:#43b3e7;}</style></defs><title>Artboard 1favicon</title><path class="cls-1" d="M374.29,196.86c17.19-11.15,36.72-16.56,54.89-7,15,7.9,22.31,3,31-7.53,5.49-6.68,12.15-12.41,18.56-18.83-2.51-2.17-3.83-3.46-5.31-4.57-38.25-28.64-89-28.18-129.67.93-23.6,16.87-42.06,38.79-60.86,60.51S245,264.12,224.72,284.72c-12.78,13-28.93,21-48.23,20.68-30.34-.47-56.34-24.37-58.62-54.39-2.37-31.23,18.91-59.48,48.58-64.47,31.28-5.26,61.49,14.16,68.47,44.62,1.93,8.43,2,17.29,3,27.49,12.62-15.18,24.39-29.62,36.49-43.73,3.51-4.09,3.65-7.44,1.55-12.27a107.34,107.34,0,0,0-149.21-52.22c-2.53,1.34-5.15,2.49-8.52,4.12-.24-3.25-.82-5.65-.52-7.94.93-7.23-2.16-9.37-9.14-9a266.05,266.05,0,0,1-29.76,0c-7-.4-9.16,1.71-9.14,8.9.23,93.34.08,186.7.37,280,0,3.86,2.51,8.68,5.39,11.4,10.32,9.75,21.3,18.8,32,28.1,2.69,2.32,5.46,4.56,10,8.34V336.5c2.69,1,3.69,1.34,4.57,1.82,46.92,25.19,91.17,20,129.93-15.42,24.21-22.13,45.23-47.82,67.17-72.37C336.31,231.34,352.35,211.09,374.29,196.86Z"/><path class="cls-1" d="M600.28,201.18c17.63-13.2,37.1-20.31,58.64-12.33,11.19,4.15,21.09,11.77,31.24,17.64,9.8-9.59,20.83-20.36,32.14-31.4a20.39,20.39,0,0,0-2.46-3.57C689.65,141.22,653.69,131,612.35,142,587,148.69,566.49,164.21,549.06,183c-21.83,23.58-42.22,48.5-63.31,72.76-13.2,15.2-26.7,30.13-44.31,40.48C406.17,317,363.86,301,352.31,261.91c-2.59-8.77-2.11-18.46-3.12-28.64a9.77,9.77,0,0,0-2.7,1.53C334.29,249,322,263.25,310.13,277.72c-1.29,1.56-1.34,5.07-.58,7.2C323,322.55,363,351.42,402.81,353.39c31.92,1.58,59.44-9.14,82-30.63,20.51-19.54,39.39-40.85,58.16-62.1C561.21,240,578,217.9,600.28,201.18Z"/><path class="cls-1" d="M693,290.39c-4.22-4.3-6.79-4.67-11.69-.37-19.44,17-41.83,20.52-65,9.48S582,268.83,582,243.11V234l-37.73,41c-3.51,4-3.81,7.34-1.8,12.25,25.63,62.37,104.18,86,159.48,47.71,6.63-4.6,12.51-10.3,20.14-16.66C711.49,308.17,702,299.53,693,290.39Z"/></svg>