<svg xmlns="http://www.w3.org/2000/svg" width="85.631" height="60.793" viewBox="0 0 85.631 60.793">
  <g id="Layer_2" transform="translate(-13.49 -83.84)">
    <g id="Group_400" data-name="Group 400" transform="translate(13.49 83.84)">
      <g id="Group_399" data-name="Group 399" transform="translate(0 0)">
        <g id="Group_383" data-name="Group 383" transform="translate(42.749)">
          <path id="Path_333" data-name="Path 333" d="M290.987,115.5H256.856a1.235,1.235,0,0,1-1.236-1.236v-19a1.233,1.233,0,0,1,.381-.892l10.637-10.191a1.235,1.235,0,0,1,.854-.344h23.494a1.235,1.235,0,0,1,1.236,1.236v6.068a1.236,1.236,0,1,1-2.472,0V86.31H267.989l-9.9,9.483v17.232h31.66V98.6a1.236,1.236,0,1,1,2.472,0V114.26A1.235,1.235,0,0,1,290.987,115.5Z" transform="translate(-255.62 -83.84)" fill="#1b3954"/>
        </g>
        <g id="Group_384" data-name="Group 384" transform="translate(76.881 9.798)">
          <path id="Path_334" data-name="Path 334" d="M450.176,141.806a1.261,1.261,0,0,1-.242-.023,1.394,1.394,0,0,1-.231-.071,1.23,1.23,0,0,1-.212-.115,1.056,1.056,0,0,1-.189-.154,1.309,1.309,0,0,1-.154-.187,1.234,1.234,0,0,1-.113-.214,1.164,1.164,0,0,1-.071-.231,1.187,1.187,0,0,1,0-.482,1.273,1.273,0,0,1,.184-.445,1.432,1.432,0,0,1,.154-.189,1.234,1.234,0,0,1,.189-.154,1.353,1.353,0,0,1,.212-.113,1.4,1.4,0,0,1,.231-.071,1.239,1.239,0,0,1,.484,0,1.3,1.3,0,0,1,.231.071,1.369,1.369,0,0,1,.214.113,1.21,1.21,0,0,1,.341.342,1.324,1.324,0,0,1,.185.445,1.275,1.275,0,0,1,0,.482,1.169,1.169,0,0,1-.072.231,1.236,1.236,0,0,1-.113.214,1.2,1.2,0,0,1-.154.187,1.111,1.111,0,0,1-.187.154,1.245,1.245,0,0,1-.214.115,1.3,1.3,0,0,1-.231.071A1.235,1.235,0,0,1,450.176,141.806Z" transform="translate(-448.94 -139.335)" fill="#1b3954"/>
        </g>
        <g id="Group_385" data-name="Group 385" transform="translate(50.581 7.828)">
          <path id="Path_335" data-name="Path 335" d="M319.685,145.839H301.216a1.235,1.235,0,0,1-1.236-1.236v-9.485a1.233,1.233,0,0,1,.381-.892l5.952-5.7a1.235,1.235,0,0,1,.855-.344h12.518a1.235,1.235,0,0,1,1.236,1.236V144.6A1.235,1.235,0,0,1,319.685,145.839Zm-17.234-2.472h16V130.652H307.664l-5.214,4.995v7.721Z" transform="translate(-299.98 -128.18)" fill="#16ade1"/>
        </g>
        <g id="Group_386" data-name="Group 386" transform="translate(42.022 58.321)">
          <path id="Path_336" data-name="Path 336" d="M252.736,416.642a1.247,1.247,0,0,1-.874-.362,1.326,1.326,0,0,1-.154-.189,1.273,1.273,0,0,1-.184-.445,1.188,1.188,0,0,1,0-.482,1.168,1.168,0,0,1,.071-.231,1.235,1.235,0,0,1,.113-.214,1.312,1.312,0,0,1,.154-.187,1.25,1.25,0,0,1,1.116-.339,1.392,1.392,0,0,1,.231.071,1.243,1.243,0,0,1,.214.115,1.11,1.11,0,0,1,.187.154,1.2,1.2,0,0,1,.154.187,1.236,1.236,0,0,1,.113.214,1.166,1.166,0,0,1,.071.231,1.235,1.235,0,0,1,.025.242,1.25,1.25,0,0,1-.362.874,1.316,1.316,0,0,1-.187.154,1.374,1.374,0,0,1-.214.113,1.39,1.39,0,0,1-.231.071A1.237,1.237,0,0,1,252.736,416.642Z" transform="translate(-251.5 -414.17)" fill="#1b3954"/>
        </g>
        <g id="Group_387" data-name="Group 387" transform="translate(21.762 44.419)">
          <path id="Path_337" data-name="Path 337" d="M192.8,351.8H162.384a1.236,1.236,0,1,1,0-2.472H192.8a5.352,5.352,0,0,0,5.346-5.346v-.738A5.352,5.352,0,0,0,192.8,337.9H144.568a5.352,5.352,0,0,0-5.346,5.346v.738a5.352,5.352,0,0,0,5.346,5.346h10.085a1.236,1.236,0,0,1,0,2.472H144.568a7.827,7.827,0,0,1-7.818-7.818v-.738a7.827,7.827,0,0,1,7.818-7.818H192.8a7.827,7.827,0,0,1,7.818,7.818v.738A7.827,7.827,0,0,1,192.8,351.8Z" transform="translate(-136.75 -335.43)" fill="#1b3954"/>
        </g>
        <g id="Group_388" data-name="Group 388" transform="translate(25.484 29.186)">
          <path id="Path_338" data-name="Path 338" d="M210.463,260.741h-51.4a1.235,1.235,0,0,1-1.236-1.236v-4.223a1.231,1.231,0,0,1,.369-.881l4.984-4.9a1.234,1.234,0,0,1,.867-.355h46.413a1.235,1.235,0,0,1,1.236,1.236V259.5A1.235,1.235,0,0,1,210.463,260.741ZM160.3,258.269h48.925v-6.647H164.555L160.3,255.8Z" transform="translate(-157.83 -249.15)" fill="#1b3954"/>
        </g>
        <g id="Group_389" data-name="Group 389" transform="translate(7.452 9.303)">
          <path id="Path_339" data-name="Path 339" d="M74.966,163.782a1.235,1.235,0,0,1-.865-2.117l4.084-4.011-18.115-17.7a6.435,6.435,0,0,1-1.312,1.594L71.266,156.28a1.236,1.236,0,0,1-1.884,1.6l-13.39-15.766a1.236,1.236,0,0,1,.374-1.9,3.878,3.878,0,0,0,2.014-2.685,1.237,1.237,0,0,1,2.078-.65l20.355,19.885a1.236,1.236,0,0,1,0,1.766l-4.984,4.9A1.242,1.242,0,0,1,74.966,163.782Z" transform="translate(-55.699 -136.531)" fill="#1b3954"/>
        </g>
        <g id="Group_390" data-name="Group 390" transform="translate(2.849 12.894)">
          <path id="Path_340" data-name="Path 340" d="M35.5,180.776h-3.9a1.237,1.237,0,0,1-1.236-1.194l-.743-21.432A1.235,1.235,0,0,1,31.41,157a3.871,3.871,0,0,0,3.416,0,1.236,1.236,0,0,1,1.785,1.1l.127,21.432a1.239,1.239,0,0,1-1.236,1.245ZM32.8,178.3h1.46l-.109-18.517a6.5,6.5,0,0,1-1.993.011Z" transform="translate(-29.626 -156.87)" fill="#1b3954"/>
        </g>
        <g id="Group_391" data-name="Group 391" transform="translate(3.039 34.329)">
          <path id="Path_341" data-name="Path 341" d="M43.052,292.874H33.56a1.238,1.238,0,0,1-.966-.464l-1.624-2.032a1.236,1.236,0,0,1-.27-.772v-10.09a1.235,1.235,0,0,1,1.236-1.236H37.91a1.235,1.235,0,0,1,1.236,1.236v6.54h1.871l3.476-3.478a1.236,1.236,0,0,1,2.11.874v5.934a1.234,1.234,0,0,1-.374.886l-2.316,2.255A1.238,1.238,0,0,1,43.052,292.874Zm-8.9-2.472h8.4l1.582-1.54v-2.428l-1.728,1.73a1.236,1.236,0,0,1-.874.362H37.91a1.235,1.235,0,0,1-1.236-1.236v-6.54h-3.5v8.422Z" transform="translate(-30.7 -278.28)" fill="#16ade1"/>
        </g>
        <g id="Group_397" data-name="Group 397" transform="translate(26.858 48.673)">
          <g id="Group_392" data-name="Group 392">
            <path id="Path_342" data-name="Path 342" d="M169.544,367.387a3.934,3.934,0,1,1,3.934-3.934A3.937,3.937,0,0,1,169.544,367.387Zm0-5.4a1.462,1.462,0,1,0,1.462,1.462A1.463,1.463,0,0,0,169.544,361.992Z" transform="translate(-165.61 -359.52)" fill="#16ade1"/>
          </g>
          <g id="Group_393" data-name="Group 393" transform="translate(11.453)">
            <path id="Path_343" data-name="Path 343" d="M234.414,367.387a3.934,3.934,0,1,1,3.934-3.934A3.937,3.937,0,0,1,234.414,367.387Zm0-5.4a1.462,1.462,0,1,0,1.462,1.462A1.463,1.463,0,0,0,234.414,361.992Z" transform="translate(-230.48 -359.52)" fill="#16ade1"/>
          </g>
          <g id="Group_394" data-name="Group 394" transform="translate(22.906)">
            <path id="Path_344" data-name="Path 344" d="M299.284,367.387a3.934,3.934,0,1,1,3.934-3.934A3.937,3.937,0,0,1,299.284,367.387Zm0-5.4a1.462,1.462,0,1,0,1.462,1.462A1.463,1.463,0,0,0,299.284,361.992Z" transform="translate(-295.35 -359.52)" fill="#16ade1"/>
          </g>
          <g id="Group_395" data-name="Group 395" transform="translate(34.359)">
            <path id="Path_345" data-name="Path 345" d="M364.154,367.387a3.934,3.934,0,1,1,3.934-3.934A3.937,3.937,0,0,1,364.154,367.387Zm0-5.4a1.462,1.462,0,1,0,1.462,1.462A1.463,1.463,0,0,0,364.154,361.992Z" transform="translate(-360.22 -359.52)" fill="#16ade1"/>
          </g>
          <g id="Group_396" data-name="Group 396" transform="translate(45.812)">
            <path id="Path_346" data-name="Path 346" d="M429.024,367.387a3.934,3.934,0,1,1,3.934-3.934A3.937,3.937,0,0,1,429.024,367.387Zm0-5.4a1.462,1.462,0,1,0,1.462,1.462A1.463,1.463,0,0,0,429.024,361.992Z" transform="translate(-425.09 -359.52)" fill="#16ade1"/>
          </g>
        </g>
        <g id="Group_398" data-name="Group 398" transform="translate(0 3.213)">
          <path id="Path_347" data-name="Path 347" d="M19.83,104.512a3.868,3.868,0,0,0-1.709,7.338,3.867,3.867,0,0,0,3.418,0l.023-.011.048-.026a3.878,3.878,0,0,0,2.014-2.685,3.633,3.633,0,0,0,.074-.747A3.871,3.871,0,0,0,19.83,104.512Zm0,10.208a6.342,6.342,0,0,1-6.34-6.34,6.34,6.34,0,0,1,12.68,0,6.138,6.138,0,0,1-.122,1.231,6.371,6.371,0,0,1-3.27,4.38q-.079.045-.164.085A6.251,6.251,0,0,1,19.83,114.72Z" transform="translate(-13.49 -102.04)" fill="#16ade1"/>
        </g>
      </g>
    </g>
  </g>
</svg>
