<svg xmlns="http://www.w3.org/2000/svg" width="75.338" height="75.258" viewBox="0 0 75.338 75.258">
  <g id="_4026443_device_electronic_machine_satelite_technology_icon" data-name="4026443_device_electronic_machine_satelite_technology_icon" transform="translate(-32.725 -32.9)">
    <path id="Path_348" data-name="Path 348" d="M114.616,282.162l-5.262-5.262-4.554,4.554,17.44,17.44,4.554-4.554-12.178-12.178Z" transform="translate(-59.919 -202.846)" fill="#3b4652"/>
    <path id="Path_349" data-name="Path 349" d="M210.4,239.947l2.53,2.53h0l3.323,3.323,10.811-10.811,2.581,2.6,1.67-1.67-2.581-2.6,4.925-4.925-7.894-7.893-12.06,12.06-.1.1a4.87,4.87,0,0,1-3.2,7.286Z" transform="translate(-147.708 -155.959)" fill="#2b79c2"/>
    <rect id="Rectangle_119" data-name="Rectangle 119" width="6.983" height="4.858" transform="translate(78.684 88.211) rotate(-45)" fill="#3b4652"/>
    <rect id="Rectangle_120" data-name="Rectangle 120" width="6.983" height="4.858" transform="translate(85.286 81.619) rotate(-45)" fill="#3b4652"/>
    <rect id="Rectangle_121" data-name="Rectangle 121" width="6.983" height="3.323" transform="translate(83.795 93.334) rotate(-45)" fill="#3b4652"/>
    <path id="Path_350" data-name="Path 350" d="M364.242,385.8l-4.942,4.925,2.344,2.344h0l4.942-4.925Z" transform="translate(-271.493 -293.378)" fill="#3b4652"/>
    <rect id="Rectangle_122" data-name="Rectangle 122" width="6.983" height="4.858" transform="translate(91.834 101.363) rotate(-45)" fill="#3b4652"/>
    <rect id="Rectangle_123" data-name="Rectangle 123" width="6.983" height="3.323" transform="translate(90.397 86.718) rotate(-45)" fill="#3b4652"/>
    <rect id="Rectangle_124" data-name="Rectangle 124" width="6.983" height="3.323" transform="translate(94.411 90.734) rotate(-45)" fill="#3b4652"/>
    <rect id="Rectangle_125" data-name="Rectangle 125" width="6.983" height="4.858" transform="translate(98.425 94.761) rotate(-45)" fill="#3b4652"/>
    <rect id="Rectangle_126" data-name="Rectangle 126" width="6.983" height="4.858" transform="translate(36.174 45.709) rotate(-45)" fill="#3b4652"/>
    <rect id="Rectangle_127" data-name="Rectangle 127" width="6.983" height="3.323" transform="translate(41.273 50.819) rotate(-45)" fill="#3b4652"/>
    <rect id="Rectangle_128" data-name="Rectangle 128" width="6.983" height="3.323" transform="translate(45.298 54.824) rotate(-45)" fill="#3b4652"/>
    <path id="Path_351" data-name="Path 351" d="M139.381,161.025l.084-.084h0l-3.441-3.441-4.925,4.925,3.441,3.441Z" transform="translate(-81.783 -103.584)" fill="#3b4652"/>
    <rect id="Rectangle_129" data-name="Rectangle 129" width="6.983" height="4.858" transform="matrix(0.707, -0.707, 0.707, 0.707, 42.765, 39.105)" fill="#3b4652"/>
    <rect id="Rectangle_130" data-name="Rectangle 130" width="6.983" height="3.323" transform="translate(47.888 44.217) rotate(-45)" fill="#3b4652"/>
    <rect id="Rectangle_131" data-name="Rectangle 131" width="6.983" height="3.323" transform="translate(51.901 48.232) rotate(-45)" fill="#3b4652"/>
    <rect id="Rectangle_132" data-name="Rectangle 132" width="6.983" height="4.858" transform="matrix(0.707, -0.707, 0.707, 0.707, 55.915, 52.233)" fill="#3b4652"/>
    <path id="Path_352" data-name="Path 352" d="M151.617,166.178l-.978.978v.017l-.692.675,2.564,2.564L141.7,181.206l2.648,2.648h0l2.6,2.614h0l.59.59a4.736,4.736,0,0,1,1.332-2.462,4.862,4.862,0,0,1,5.954-.725.735.735,0,0,0,.1-.118L167,171.694l-7.893-7.894-4.925,4.925Z" transform="translate(-90.595 -108.822)" fill="#2b79c2"/>
    <path id="Path_353" data-name="Path 353" d="M253.01,380.888a1.038,1.038,0,0,0-1.467,0l-2.193,2.193L246.77,380.5l-1.67,1.67,2.581,2.581-2.176,2.176a1.038,1.038,0,0,0,0,1.467l8.433,8.433a1.038,1.038,0,0,0,1.467,0l6.038-6.038a1.038,1.038,0,0,0,0-1.467Z" transform="translate(-176.555 -288.972)" fill="#3b4652"/>
    <path id="Path_354" data-name="Path 354" d="M97.684,341.3a.911.911,0,0,0-.32,1.5l9.6,9.6a.911.911,0,0,0,1.5-.32l1.316-3.441L101.125,340Z" transform="translate(-53.511 -255.303)" fill="#2b79c2"/>
    <path id="Path_355" data-name="Path 355" d="M47.766,184.719l1.67-1.67-2.581-2.581,2.277-2.277a.886.886,0,0,0,0-1.265L40.5,168.291a.886.886,0,0,0-1.265,0l-6.241,6.241a.886.886,0,0,0,0,1.265l8.636,8.636a.886.886,0,0,0,1.265,0l2.277-2.277Z" transform="translate(0 -112.334)" fill="#3b4652"/>
    <path id="Path_356" data-name="Path 356" d="M290.772,56.361l-2.732,2.715,3.795,3.795h0L293.96,65l2.732-2.715c.135.084.253.152.388.236a18.915,18.915,0,0,0,23.073-2.867L293.386,32.9a18.912,18.912,0,0,0-2.867,23.073C290.6,56.091,290.688,56.226,290.772,56.361Z" transform="translate(-212.09)" fill="#3b4652"/>
    <path id="Path_357" data-name="Path 357" d="M406.67,57.881l3.778-3.778a3.256,3.256,0,1,0-1.67-1.67L405,56.211Z" transform="translate(-309.485 -12.449)" fill="#2b79c2"/>
  </g>
</svg>
