<svg id="Layer_1" data-name="Layer 1" xmlns="http://www.w3.org/2000/svg" viewBox="0 0 792 612"><defs><style>.cls-1{fill:#0d3831;}.cls-2{fill:#43b3e7;}</style></defs><title>Artboard 1</title><path class="cls-1" d="M140.87,419.38a11.42,11.42,0,0,1-4.23-.69,7.21,7.21,0,0,1-2.74-1.83,6.58,6.58,0,0,1-1.46-2.68A11.88,11.88,0,0,1,132,411v-9.65h6.51v8.51a3.18,3.18,0,0,0,.63,2.37,3.23,3.23,0,0,0,2.11.54h26.56V396.65h6.57v22.73Zm5.88-31.64a3.19,3.19,0,0,1,1-2.34,3.59,3.59,0,0,1,4.91,0,3.31,3.31,0,0,1,0,4.68,3.59,3.59,0,0,1-4.91,0A3.19,3.19,0,0,1,146.76,387.74Zm8.91,0a3.19,3.19,0,0,1,1-2.34,3.59,3.59,0,0,1,4.91,0,3.31,3.31,0,0,1,0,4.68,3.59,3.59,0,0,1-4.91,0A3.19,3.19,0,0,1,155.67,387.74Z"/><path class="cls-1" d="M212.67,378.48v40.9h-32v-6.63h11.71V389.16h6.51v23.59h7.31V378.48Z"/><path class="cls-1" d="M233.86,419.38a15.69,15.69,0,0,1-6-1,11,11,0,0,1-3.94-2.63,10,10,0,0,1-2.2-3.68,13.11,13.11,0,0,1-.69-4.17,14.79,14.79,0,0,1,.89-5.11,13.33,13.33,0,0,1,2.48-4.26,11.69,11.69,0,0,1,3.83-2.88,11.32,11.32,0,0,1,4.91-1.06,11.92,11.92,0,0,1,4.54.83,9.77,9.77,0,0,1,3.46,2.34,10.48,10.48,0,0,1,2.2,3.6,13.17,13.17,0,0,1,.77,4.6v12.57a15.61,15.61,0,0,1-1.09,6.14,10.33,10.33,0,0,1-3.06,4.11,12.87,12.87,0,0,1-4.68,2.31,22.57,22.57,0,0,1-6,.74q-1.2,0-2.66-.09t-3.23-.37l.46-6.4q1.66.23,3.17.34t2.54.11a19.28,19.28,0,0,0,3-.23,6.92,6.92,0,0,0,2.51-.89,5.11,5.11,0,0,0,1.77-1.83,7,7,0,0,0,.8-3.11Zm3.83-6.63v-5.08a8.32,8.32,0,0,0-1.29-5,4.19,4.19,0,0,0-3.57-1.74,4.7,4.7,0,0,0-2,.43,5.82,5.82,0,0,0-1.71,1.2,5.74,5.74,0,0,0-1.23,1.86,6.27,6.27,0,0,0-.46,2.46,6.44,6.44,0,0,0,.51,2.71,5.14,5.14,0,0,0,1.37,1.83,5.23,5.23,0,0,0,2,1,8.81,8.81,0,0,0,2.34.31Z"/><path class="cls-1" d="M252.25,378.48h6.51v34.27h3.88a1.49,1.49,0,0,1,1.26.46,1.76,1.76,0,0,1,.34,1.08v3.48a1.85,1.85,0,0,1-.4,1,1.37,1.37,0,0,1-1.2.57h-10.4Z"/><path class="cls-1" d="M291.38,412.75h5.54a1.4,1.4,0,0,1,1.23.46,1.87,1.87,0,0,1,.31,1.08v3.48a1.94,1.94,0,0,1-.37,1,1.3,1.3,0,0,1-1.17.57H262.36a1.4,1.4,0,0,1-1.23-.46,1.77,1.77,0,0,1-.31-1v-3.37a2.17,2.17,0,0,1,.37-1.2,1.3,1.3,0,0,1,1.17-.57h7.25a12,12,0,0,1-.94-2.08,10.86,10.86,0,0,1-.54-3.74,11.93,11.93,0,0,1,.91-4.57,12.34,12.34,0,0,1,2.57-3.94,12.76,12.76,0,0,1,9.25-3.83,11.3,11.3,0,0,1,4.34.8,9.41,9.41,0,0,1,3.31,2.26,10,10,0,0,1,2.11,3.51,13.39,13.39,0,0,1,.74,4.57Zm-18.85-25a3.19,3.19,0,0,1,1-2.34,3.59,3.59,0,0,1,4.91,0,3.31,3.31,0,0,1,0,4.68,3.59,3.59,0,0,1-4.91,0A3.19,3.19,0,0,1,272.53,387.74Zm12.28,25v-7.31a5.2,5.2,0,0,0-.26-1.6,4.13,4.13,0,0,0-.83-1.46,4.26,4.26,0,0,0-1.43-1.06,5,5,0,0,0-2.11-.4,5.23,5.23,0,0,0-2.08.43,5.6,5.6,0,0,0-1.77,1.2,5.74,5.74,0,0,0-1.23,1.86,6.27,6.27,0,0,0-.46,2.46,5.65,5.65,0,0,0,.8,3.23,6.37,6.37,0,0,0,1.77,1.8,6.12,6.12,0,0,0,2.63.86Zm-3.37-25a3.19,3.19,0,0,1,1-2.34,3.59,3.59,0,0,1,4.91,0,3.31,3.31,0,0,1,0,4.68,3.59,3.59,0,0,1-4.91,0A3.19,3.19,0,0,1,281.44,387.74Z"/><path class="cls-1" d="M296.58,419.38a1.4,1.4,0,0,1-1.2-.46,1.69,1.69,0,0,1-.34-1v-3.4a2.2,2.2,0,0,1,.37-1.21,1.29,1.29,0,0,1,1.17-.58h2.23a4.17,4.17,0,0,0,1.26-.2,2.35,2.35,0,0,0,1.11-.79,4.46,4.46,0,0,0,.77-1.65,10.54,10.54,0,0,0,.29-2.7,13.86,13.86,0,0,1,.89-5,12.06,12.06,0,0,1,2.46-4,11.46,11.46,0,0,1,8.42-3.6q5.54,0,8.48,3.52t2.94,9.88a7.67,7.67,0,0,0,.14,1.31,3.64,3.64,0,0,0,.66,1.5,4.16,4.16,0,0,0,1.51,1.22,6,6,0,0,0,2.71.51h2.06a1.49,1.49,0,0,1,1.23.46,1.69,1.69,0,0,1,.37,1.09v3.51a1.89,1.89,0,0,1-.4,1,1.36,1.36,0,0,1-1.2.58h-2.23a7.43,7.43,0,0,1-6.85-4.27,10.39,10.39,0,0,1-2.17,2.54,8.15,8.15,0,0,1-2.34,1.35,9.92,9.92,0,0,1-2.51.55q-1.31.11-2.68.11a11.32,11.32,0,0,1-5.4-1.15,10.5,10.5,0,0,1-3.51-3,7.31,7.31,0,0,1-2.28,2.77,5.54,5.54,0,0,1-3.37,1.09ZM313.94,413a4.83,4.83,0,0,0,4-1.62,6.25,6.25,0,0,0,1.29-4,7.43,7.43,0,0,0-.46-2.67,7.14,7.14,0,0,0-1.17-2,4.9,4.9,0,0,0-1.69-1.31,4.66,4.66,0,0,0-2-.46,4.78,4.78,0,0,0-2.06.46,4.88,4.88,0,0,0-1.69,1.31,6.63,6.63,0,0,0-1.14,2,7.87,7.87,0,0,0-.43,2.67,6.25,6.25,0,0,0,1.29,4A4.83,4.83,0,0,0,313.94,413Z"/><path class="cls-1" d="M332.22,419.38c-.65,0-1.07-.15-1.26-.46a1.9,1.9,0,0,1-.29-1v-3.37a2.17,2.17,0,0,1,.37-1.2,1.3,1.3,0,0,1,1.17-.57h5.48a1.73,1.73,0,0,0,1.69-.8,4.62,4.62,0,0,0,.43-2.17v-31.3h6.57v29a6.34,6.34,0,0,0,1.06,3.77q1.06,1.49,4,1.48h2c.65,0,1.07.15,1.26.46a2,2,0,0,1,.29,1.08v3.48a1.94,1.94,0,0,1-.37,1,1.3,1.3,0,0,1-1.17.57h-2.23a6.3,6.3,0,0,1-4-1.17,8.66,8.66,0,0,1-2.31-2.6,6.46,6.46,0,0,1-2.74,2.83,8.76,8.76,0,0,1-4.17.94Z"/><path class="cls-1" d="M353,419.38a1.32,1.32,0,0,1-1.17-.46,1.77,1.77,0,0,1-.31-1v-3.37a2.3,2.3,0,0,1,.34-1.2,1.23,1.23,0,0,1,1.14-.57h6.74V378.48h6.45v40.9Z"/><path class="cls-1" d="M429.54,419.38V409a10.63,10.63,0,0,0-.37-3.11,3.69,3.69,0,0,0-1.14-1.8,4.11,4.11,0,0,0-1.94-.83,16.35,16.35,0,0,0-2.71-.2h-.51V415.1a17.89,17.89,0,0,1-1.14,6.43,13.73,13.73,0,0,1-3.54,5.23,17.35,17.35,0,0,1-6.11,3.54,26.41,26.41,0,0,1-8.8,1.31,20.72,20.72,0,0,1-7.94-1.37,16.22,16.22,0,0,1-5.43-3.51,13.55,13.55,0,0,1-3.11-4.83,15.44,15.44,0,0,1,.06-11.08,25.68,25.68,0,0,1,2.71-5l5.37,3.14a15.16,15.16,0,0,0-1.91,3.8,11.14,11.14,0,0,0-.6,3.4,8,8,0,0,0,.74,3.46,7.5,7.5,0,0,0,2.2,2.71,11,11,0,0,0,3.6,1.8,16.67,16.67,0,0,0,4.88.66,21.78,21.78,0,0,0,5-.54,13.17,13.17,0,0,0,4-1.6,7.63,7.63,0,0,0,2.6-2.63,7,7,0,0,0,.91-3.57V396.65h7.94q6.05,0,8.91,2.91t2.86,8.8v4.4h3.66a1.42,1.42,0,0,1,1.17.46,1.67,1.67,0,0,1,.37,1.08v3.48a1.94,1.94,0,0,1-.37,1,1.3,1.3,0,0,1-1.17.57Zm-33.64,18a3.14,3.14,0,0,1,1-2.33,3.65,3.65,0,0,1,4.91,0,3.14,3.14,0,0,1,1,2.33,3.21,3.21,0,0,1-1,2.39,3.65,3.65,0,0,1-4.91,0A3.2,3.2,0,0,1,395.9,437.4Zm8.85,0a3.14,3.14,0,0,1,1-2.33,3.65,3.65,0,0,1,4.91,0,3.14,3.14,0,0,1,1,2.33,3.21,3.21,0,0,1-1,2.39,3.65,3.65,0,0,1-4.91,0A3.21,3.21,0,0,1,404.76,437.4Z"/><path class="cls-1" d="M439.31,419.38a1.32,1.32,0,0,1-1.17-.46,1.77,1.77,0,0,1-.31-1v-3.37a2.3,2.3,0,0,1,.34-1.2,1.23,1.23,0,0,1,1.14-.57h6.74V378.48h6.45v40.9Z"/><path class="cls-1" d="M461.93,378.48h6.51v34.27h3.88a1.49,1.49,0,0,1,1.26.46,1.76,1.76,0,0,1,.34,1.08v3.48a1.86,1.86,0,0,1-.4,1,1.37,1.37,0,0,1-1.2.57h-10.4Z"/><path class="cls-1" d="M472,419.38c-.65,0-1.07-.15-1.26-.46a1.9,1.9,0,0,1-.29-1v-3.37a2.17,2.17,0,0,1,.37-1.2,1.3,1.3,0,0,1,1.17-.57h5.48a1.73,1.73,0,0,0,1.69-.8,4.62,4.62,0,0,0,.43-2.17V396.65h6.51V407.5a6.22,6.22,0,0,0,1.09,3.77q1.08,1.49,3.94,1.48h2c.65,0,1.07.15,1.26.46a2,2,0,0,1,.29,1.08v3.48a1.94,1.94,0,0,1-.37,1,1.3,1.3,0,0,1-1.17.57H491a6.3,6.3,0,0,1-4-1.2,9,9,0,0,1-2.31-2.63,8,8,0,0,1-2.71,2.74,7.67,7.67,0,0,1-4.14,1.08Zm3.71-31.64a3.19,3.19,0,0,1,1-2.34,3.59,3.59,0,0,1,4.91,0,3.31,3.31,0,0,1,0,4.68,3.59,3.59,0,0,1-4.91,0A3.19,3.19,0,0,1,475.75,387.74Zm4.4-7.4a3.09,3.09,0,0,1,1-2.33,3.69,3.69,0,0,1,4.94,0,3.06,3.06,0,0,1,1,2.33,3.12,3.12,0,0,1-1,2.39,3.69,3.69,0,0,1-4.94,0A3.16,3.16,0,0,1,480.15,380.34Zm4.51,7.4a3.19,3.19,0,0,1,1-2.34,3.59,3.59,0,0,1,4.91,0,3.31,3.31,0,0,1,0,4.68,3.59,3.59,0,0,1-4.91,0A3.19,3.19,0,0,1,484.66,387.74Z"/><path class="cls-1" d="M492.83,419.38a1.4,1.4,0,0,1-1.2-.46,1.69,1.69,0,0,1-.34-1v-3.4a2.19,2.19,0,0,1,.37-1.21,1.29,1.29,0,0,1,1.17-.58h2.23a4.17,4.17,0,0,0,1.26-.2,2.35,2.35,0,0,0,1.11-.79,4.46,4.46,0,0,0,.77-1.65,10.56,10.56,0,0,0,.29-2.7,13.86,13.86,0,0,1,.89-5,12.06,12.06,0,0,1,2.46-4,11.46,11.46,0,0,1,8.42-3.6q5.54,0,8.48,3.52t2.94,9.88a7.62,7.62,0,0,0,.14,1.31,3.64,3.64,0,0,0,.66,1.5,4.17,4.17,0,0,0,1.51,1.22,6,6,0,0,0,2.71.51h2.06a1.49,1.49,0,0,1,1.23.46,1.69,1.69,0,0,1,.37,1.09v3.51a1.88,1.88,0,0,1-.4,1,1.36,1.36,0,0,1-1.2.58h-2.23a7.43,7.43,0,0,1-6.85-4.27,10.38,10.38,0,0,1-2.17,2.54,8.15,8.15,0,0,1-2.34,1.35,9.92,9.92,0,0,1-2.51.55q-1.31.11-2.68.11a11.32,11.32,0,0,1-5.4-1.15,10.5,10.5,0,0,1-3.51-3,7.32,7.32,0,0,1-2.29,2.77,5.54,5.54,0,0,1-3.37,1.09ZM510.19,413a4.83,4.83,0,0,0,4-1.62,6.25,6.25,0,0,0,1.29-4,7.44,7.44,0,0,0-.46-2.67,7.14,7.14,0,0,0-1.17-2,4.89,4.89,0,0,0-1.69-1.31,4.66,4.66,0,0,0-2-.46,4.78,4.78,0,0,0-2.06.46,4.87,4.87,0,0,0-1.69,1.31,6.64,6.64,0,0,0-1.14,2,7.88,7.88,0,0,0-.43,2.67,6.24,6.24,0,0,0,1.29,4A4.83,4.83,0,0,0,510.19,413Z"/><path class="cls-1" d="M528.41,419.38a1.32,1.32,0,0,1-1.17-.46,1.77,1.77,0,0,1-.31-1v-3.37a2.3,2.3,0,0,1,.34-1.2,1.23,1.23,0,0,1,1.14-.57h6.74V378.48h6.45v40.9Z"/><path class="cls-1" d="M551,378.48h6.45v40.9H551Z"/><path class="cls-1" d="M578,419.38v-6.63h15.59V407a9,9,0,0,0-.46-3.14,4.22,4.22,0,0,0-1.34-1.88,4.88,4.88,0,0,0-2.17-.91,16.67,16.67,0,0,0-2.88-.23h-5.54v-6.34h6.85a22.26,22.26,0,0,1,4.54.46,9.3,9.3,0,0,1,3.88,1.77,9,9,0,0,1,2.68,3.66,15.76,15.76,0,0,1,1,6.11v12.91Z"/><path class="cls-1" d="M608.26,378.48h6.45v40.9h-6.45Z"/><path class="cls-1" d="M647.79,419.38a6.56,6.56,0,0,1-3.94-1.11,8.35,8.35,0,0,1-2.4-2.6,6.75,6.75,0,0,1-2.77,2.74,8.46,8.46,0,0,1-4.08,1H621.11v-6.63h13a2,2,0,0,0,1.77-.69,4,4,0,0,0,.46-2.17q0-2.28-.17-4a6.65,6.65,0,0,0-.86-2.86,4.26,4.26,0,0,0-2-1.69,9.66,9.66,0,0,0-3.68-.57H624.2v-6.28h6.74a14.69,14.69,0,0,1,5.6.94,9.19,9.19,0,0,1,3.66,2.6,10.14,10.14,0,0,1,2,3.91,19,19,0,0,1,.6,4.88,7,7,0,0,0,1.2,4.43,4.73,4.73,0,0,0,3.94,1.51H650a1.41,1.41,0,0,1,1.2.46,1.76,1.76,0,0,1,.34,1.08v3.48a1.94,1.94,0,0,1-.37,1,1.3,1.3,0,0,1-1.17.57Z"/><path class="cls-1" d="M649.62,419.38a1.41,1.41,0,0,1-1.2-.46,1.67,1.67,0,0,1-.34-1v-3.37a2.17,2.17,0,0,1,.37-1.2,1.3,1.3,0,0,1,1.17-.57h5.83a19,19,0,0,0,2.23-.11,13.24,13.24,0,0,0,1.66-.29,28.45,28.45,0,0,1-2.06-2.17q-1-1.2-1.88-2.37t-1.49-2.23a9.44,9.44,0,0,1-.86-1.74l-.23-4.57a20.71,20.71,0,0,1,2.86-1.94,24.22,24.22,0,0,1,3.4-1.6,24.79,24.79,0,0,1,3.68-1.09,18.19,18.19,0,0,1,3.77-.4,18.57,18.57,0,0,1,5,.6,11.4,11.4,0,0,1,3.48,1.57,7,7,0,0,1,2.06,2.14,4.47,4.47,0,0,1,.69,2.26,14,14,0,0,1-1.26,5.37,20,20,0,0,1-4.91,6.4,32.14,32.14,0,0,0,4,.17h4.86a1.49,1.49,0,0,1,1.26.46,1.76,1.76,0,0,1,.34,1.08v3.48a1.94,1.94,0,0,1-.37,1,1.35,1.35,0,0,1-1.23.57h-5a21.8,21.8,0,0,1-6.4-.8,19.64,19.64,0,0,1-3.94-1.6,16.57,16.57,0,0,1-4.71,1.83,22.75,22.75,0,0,1-5,.57Zm16.85-18.85a17.9,17.9,0,0,0-4,.49A11.65,11.65,0,0,0,659,402.3a11.92,11.92,0,0,0,.86,1.48,25.9,25.9,0,0,0,1.54,2.11q.91,1.14,2,2.23a14.12,14.12,0,0,0,2.14,1.83,13.93,13.93,0,0,0,2.37-1.77,15,15,0,0,0,1.91-2.11,11.41,11.41,0,0,0,1.26-2.11,4.59,4.59,0,0,0,.46-1.83.92.92,0,0,0-.46-.77,3.52,3.52,0,0,0-1.2-.49,12.79,12.79,0,0,0-1.63-.26Q667.38,400.53,666.47,400.53Z"/><path class="cls-1" d="M680.12,419.38a1.32,1.32,0,0,1-1.17-.46,1.77,1.77,0,0,1-.31-1v-3.37a2.3,2.3,0,0,1,.34-1.2,1.23,1.23,0,0,1,1.14-.57h6.74V378.48h6.45v40.9Z"/><path class="cls-1" d="M702.68,378.48h6.45v40.9h-6.45Z"/><path class="cls-2" d="M374.29,196.86c17.19-11.15,36.72-16.56,54.89-7,15,7.9,22.31,3,31-7.53,5.49-6.68,12.15-12.41,18.56-18.83-2.51-2.17-3.83-3.46-5.31-4.57-38.25-28.64-89-28.18-129.67.93-23.6,16.87-42.06,38.79-60.86,60.51S245,264.12,224.72,284.72c-12.78,13-28.93,21-48.23,20.68-30.34-.47-56.34-24.37-58.62-54.39-2.37-31.23,18.91-59.48,48.58-64.47,31.28-5.26,61.49,14.16,68.47,44.62,1.93,8.43,2,17.29,3,27.49,12.62-15.18,24.39-29.62,36.49-43.73,3.51-4.09,3.65-7.44,1.55-12.27a107.34,107.34,0,0,0-149.21-52.22c-2.53,1.34-5.15,2.49-8.52,4.12-.24-3.25-.82-5.65-.52-7.94.93-7.23-2.16-9.37-9.14-9a266.05,266.05,0,0,1-29.76,0c-7-.4-9.16,1.71-9.14,8.9.23,93.34.08,186.7.37,280,0,3.86,2.51,8.68,5.39,11.4,10.32,9.75,21.3,18.8,32,28.1,2.69,2.32,5.46,4.56,10,8.34V336.5c2.69,1,3.69,1.34,4.57,1.82,46.92,25.19,91.17,20,129.93-15.42,24.21-22.13,45.23-47.82,67.17-72.37C336.31,231.34,352.35,211.09,374.29,196.86Z"/><path class="cls-2" d="M600.28,201.18c17.63-13.2,37.1-20.31,58.64-12.33,11.19,4.15,21.09,11.77,31.24,17.64,9.8-9.59,20.83-20.36,32.14-31.4a20.39,20.39,0,0,0-2.46-3.57C689.65,141.22,653.69,131,612.35,142,587,148.69,566.49,164.21,549.06,183c-21.83,23.58-42.22,48.5-63.31,72.76-13.2,15.2-26.7,30.13-44.31,40.48C406.17,317,363.86,301,352.31,261.91c-2.59-8.77-2.11-18.46-3.12-28.64a9.77,9.77,0,0,0-2.7,1.53C334.29,249,322,263.25,310.13,277.72c-1.29,1.56-1.34,5.07-.58,7.2C323,322.55,363,351.42,402.81,353.39c31.92,1.58,59.44-9.14,82-30.63,20.51-19.54,39.39-40.85,58.16-62.1C561.21,240,578,217.9,600.28,201.18Z"/><path class="cls-2" d="M693,290.39c-4.22-4.3-6.79-4.67-11.69-.37-19.44,17-41.83,20.52-65,9.48S582,268.83,582,243.11V234l-37.73,41c-3.51,4-3.81,7.34-1.8,12.25,25.63,62.37,104.18,86,159.48,47.71,6.63-4.6,12.51-10.3,20.14-16.66C711.49,308.17,702,299.53,693,290.39Z"/></svg>