<svg id="Layer_1" data-name="Layer 1" xmlns="http://www.w3.org/2000/svg" viewBox="0 0 792 612"><defs><style>.cls-1{fill:#fff;}</style></defs><title>Artboard 1logo white svg</title><path class="cls-1" d="M148.55,423.07v12.09H137.07V393.74h18.31a17.07,17.07,0,0,1,6.21,1.1,14.63,14.63,0,0,1,4.89,3.06,13.84,13.84,0,0,1,3.2,4.66,15.9,15.9,0,0,1,0,11.83,13.76,13.76,0,0,1-3.17,4.61,14.18,14.18,0,0,1-4.84,3,17.18,17.18,0,0,1-6.14,1.07Zm6.31-9.56a3.86,3.86,0,0,0,1.72-.4A4.76,4.76,0,0,0,158,412a5,5,0,0,0,1-1.6,5.72,5.72,0,0,0,0-3.94,5.31,5.31,0,0,0-1-1.63,4.9,4.9,0,0,0-1.42-1.13,3.63,3.63,0,0,0-1.72-.43h-6.34v10.2Z"/><path class="cls-1" d="M176.82,393.74h29.91v9.56H188.3v6.61H204v9.53H188.3v6.15H207v9.56H176.82Z"/><path class="cls-1" d="M228.54,422.34H224.7v12.82H213.22V393.74h18.43a17.75,17.75,0,0,1,6.21,1.05,14.7,14.7,0,0,1,4.89,2.94,13.2,13.2,0,0,1,3.2,4.52,14.51,14.51,0,0,1,1.14,5.83,15.27,15.27,0,0,1-.52,4.05,14,14,0,0,1-1.46,3.47,12.61,12.61,0,0,1-2.3,2.83,13.46,13.46,0,0,1-3,2.1l8.35,14.62H235Zm2.59-9.56a4.53,4.53,0,0,0,1.74-.34,4.28,4.28,0,0,0,1.43-.94,4.39,4.39,0,0,0,1-1.48,5.39,5.39,0,0,0,0-3.82,4.69,4.69,0,0,0-1-1.52,4.51,4.51,0,0,0-1.42-1,4.13,4.13,0,0,0-1.72-.37H224.7v9.47Z"/><path class="cls-1" d="M253.37,393.74h29.91v9.56H264.85v8.25h15.72v9.56H264.85v14H253.37Z"/><path class="cls-1" d="M289.16,393.74h29.91v9.56H300.64v6.61h15.72v9.53H300.64v6.15h18.7v9.56H289.16Z"/><path class="cls-1" d="M362.11,429.41a24,24,0,0,1-3,2.6,21.24,21.24,0,0,1-3.69,2.15,23.27,23.27,0,0,1-4.28,1.46,20.45,20.45,0,0,1-4.78.55,23.64,23.64,0,0,1-6.09-.78,23.37,23.37,0,0,1-5.45-2.19,22.69,22.69,0,0,1-4.61-3.41,22.21,22.21,0,0,1-3.58-4.42,21.06,21.06,0,0,1-2.3-5.19,20.92,20.92,0,0,1,2.3-16.78,22,22,0,0,1,3.58-4.39,22.58,22.58,0,0,1,4.61-3.38,23.79,23.79,0,0,1,11.54-3,21.18,21.18,0,0,1,8.88,1.9,22,22,0,0,1,3.69,2.13,25.75,25.75,0,0,1,3.21,2.73l-6.95,7.19a10.75,10.75,0,0,0-3.93-3.24,11.07,11.07,0,0,0-4.9-1.14,10.74,10.74,0,0,0-4.45.93,11.23,11.23,0,0,0-3.61,2.56,12.21,12.21,0,0,0-2.44,3.85,13.5,13.5,0,0,0,0,9.69,12.2,12.2,0,0,0,2.44,3.85,11.22,11.22,0,0,0,3.61,2.56,10.94,10.94,0,0,0,7,.62,11.52,11.52,0,0,0,2.39-.87,11.19,11.19,0,0,0,2.13-1.37,11.62,11.62,0,0,0,1.78-1.81Z"/><path class="cls-1" d="M375.57,403.3H364.64v-9.56H397.9v9.56H387v31.86H375.57Z"/><path class="cls-1" d="M455.23,429.41a24.11,24.11,0,0,1-3,2.6,21.24,21.24,0,0,1-3.69,2.15,23.29,23.29,0,0,1-4.28,1.46,20.45,20.45,0,0,1-4.78.55,23.64,23.64,0,0,1-6.09-.78,23.37,23.37,0,0,1-5.45-2.19,22.7,22.7,0,0,1-4.61-3.41,22.18,22.18,0,0,1-3.58-4.42,21,21,0,0,1-2.3-5.19,20.92,20.92,0,0,1,2.3-16.78,22,22,0,0,1,3.58-4.39,22.59,22.59,0,0,1,4.61-3.38,23.8,23.8,0,0,1,11.54-3,21.18,21.18,0,0,1,8.88,1.9,22,22,0,0,1,3.69,2.13,25.75,25.75,0,0,1,3.21,2.73l-6.95,7.19a10.76,10.76,0,0,0-3.93-3.24,11.07,11.07,0,0,0-4.9-1.14,10.75,10.75,0,0,0-4.45.93,11.23,11.23,0,0,0-3.61,2.56,12.21,12.21,0,0,0-2.44,3.85,13.5,13.5,0,0,0,0,9.69,12.21,12.21,0,0,0,2.44,3.85,11.21,11.21,0,0,0,3.61,2.56,10.94,10.94,0,0,0,7,.62,11.54,11.54,0,0,0,2.39-.87,11.15,11.15,0,0,0,2.13-1.37,11.59,11.59,0,0,0,1.78-1.81Z"/><path class="cls-1" d="M461.44,414.39a20.78,20.78,0,0,1,3.11-11,22,22,0,0,1,3.58-4.39,22.59,22.59,0,0,1,4.61-3.38,23.8,23.8,0,0,1,11.54-3,23.52,23.52,0,0,1,6.06.78,23.82,23.82,0,0,1,5.45,2.18,22.59,22.59,0,0,1,4.61,3.38A22.07,22.07,0,0,1,504,403.4a21.19,21.19,0,0,1,2.32,5.19,20.83,20.83,0,0,1,0,11.59,21.53,21.53,0,0,1-2.32,5.19,22.25,22.25,0,0,1-3.58,4.42,22.7,22.7,0,0,1-4.61,3.41,23.56,23.56,0,0,1-11.51,3,23.64,23.64,0,0,1-6.09-.78,23.37,23.37,0,0,1-5.45-2.19,22.7,22.7,0,0,1-4.61-3.41,22.21,22.21,0,0,1-3.58-4.42,21.08,21.08,0,0,1-2.3-5.19A20.6,20.6,0,0,1,461.44,414.39Zm11.45,0a12.81,12.81,0,0,0,.9,4.84,12.21,12.21,0,0,0,2.44,3.85,11.21,11.21,0,0,0,3.61,2.56,11.15,11.15,0,0,0,8.91,0,11.18,11.18,0,0,0,3.63-2.56,12,12,0,0,0,2.42-3.85,13.73,13.73,0,0,0,0-9.69,12,12,0,0,0-2.42-3.85,11.2,11.2,0,0,0-3.62-2.56,11.14,11.14,0,0,0-8.91,0,11.23,11.23,0,0,0-3.61,2.56,12.21,12.21,0,0,0-2.44,3.85A12.82,12.82,0,0,0,472.89,414.42Z"/><path class="cls-1" d="M539.05,393.74h11.48v25.46a17.34,17.34,0,0,1-1.31,6.78,15.36,15.36,0,0,1-3.73,5.38,17.37,17.37,0,0,1-5.86,3.53,22.07,22.07,0,0,1-7.74,1.28,22.52,22.52,0,0,1-7.37-1.17,17.58,17.58,0,0,1-5.92-3.37,15.5,15.5,0,0,1-3.94-5.35,16.93,16.93,0,0,1-1.43-7.08V393.74h11.45v25.53a9.38,9.38,0,0,0,.46,3,6.42,6.42,0,0,0,1.37,2.36,6.19,6.19,0,0,0,2.27,1.54,8.26,8.26,0,0,0,3.12.55,8.06,8.06,0,0,0,3.08-.55,6.08,6.08,0,0,0,2.24-1.54,6.71,6.71,0,0,0,1.37-2.36,9.22,9.22,0,0,0,.47-3Z"/><path class="cls-1" d="M596.74,435.17h-10l-17.36-22.3v22.3H557.94V393.74H568l17.27,22.21V393.74h11.45Z"/><path class="cls-1" d="M612.83,403.3H601.89v-9.56h33.26v9.56H624.25v31.86H612.83Z"/><path class="cls-1" d="M640.3,393.74h29.91v9.56H651.78v6.61H667.5v9.53H651.78v6.15h18.7v9.56H640.3Z"/><path class="cls-1" d="M692,422.34h-3.84v12.82H676.7V393.74h18.43a17.75,17.75,0,0,1,6.21,1.05,14.7,14.7,0,0,1,4.89,2.94,13.2,13.2,0,0,1,3.2,4.52,14.51,14.51,0,0,1,1.14,5.83,15.29,15.29,0,0,1-.52,4.05,13.94,13.94,0,0,1-1.46,3.47,12.58,12.58,0,0,1-2.3,2.83,13.44,13.44,0,0,1-3,2.1l8.35,14.62H698.48Zm2.59-9.56a4.54,4.54,0,0,0,1.74-.34,4.28,4.28,0,0,0,1.43-.94,4.38,4.38,0,0,0,1-1.48,5.39,5.39,0,0,0,0-3.82,4.67,4.67,0,0,0-1-1.52,4.51,4.51,0,0,0-1.42-1,4.13,4.13,0,0,0-1.72-.37h-6.46v9.47Z"/><path class="cls-1" d="M374.28,196.83c17.2-11.16,36.73-16.57,54.91-7,15,7.91,22.32,3,31-7.54,5.49-6.68,12.16-12.41,18.57-18.84-2.51-2.17-3.83-3.46-5.31-4.57-38.26-28.64-89-28.19-129.72.93-23.61,16.87-42.07,38.81-60.88,60.53s-37.9,43.76-58.16,64.37c-12.78,13-28.93,21-48.24,20.69-30.35-.47-56.36-24.38-58.64-54.41-2.37-31.24,18.92-59.5,48.59-64.49,31.29-5.27,61.51,14.17,68.5,44.63,1.93,8.44,2,17.29,3,27.5,12.62-15.18,24.39-29.63,36.5-43.75,3.51-4.09,3.66-7.44,1.55-12.27a107.37,107.37,0,0,0-149.26-52.23c-2.53,1.34-5.15,2.5-8.52,4.12-.24-3.25-.82-5.65-.52-7.94.93-7.23-2.16-9.37-9.15-9a266.14,266.14,0,0,1-29.77,0c-7-.4-9.16,1.71-9.15,8.9.23,93.37.08,186.76.37,280.14,0,3.86,2.51,8.68,5.39,11.4,10.32,9.76,21.3,18.81,32.06,28.11,2.69,2.32,5.46,4.56,10,8.34v-138c2.69,1,3.69,1.34,4.57,1.82,46.94,25.2,91.2,20,130-15.43,24.22-22.14,45.25-47.84,67.19-72.39C336.29,231.32,352.33,211.06,374.28,196.83Z"/><path class="cls-1" d="M600.35,201.15c17.63-13.2,37.11-20.32,58.66-12.33,11.19,4.15,21.09,11.77,31.25,17.65,9.81-9.6,20.84-20.37,32.16-31.41a20.39,20.39,0,0,0-2.46-3.57c-30.21-30.3-66.18-40.54-107.53-29.56-25.36,6.73-45.87,22.25-63.31,41.09-21.83,23.59-42.23,48.51-63.33,72.78-13.2,15.2-26.71,30.14-44.33,40.5C406.18,317,363.85,301,352.3,261.9c-2.59-8.78-2.11-18.47-3.12-28.64a9.77,9.77,0,0,0-2.71,1.53C334.27,249,322,263.23,310.1,277.71c-1.29,1.56-1.34,5.07-.58,7.2,13.43,37.65,53.43,66.53,93.29,68.5,31.93,1.58,59.46-9.15,82-30.64,20.51-19.55,39.4-40.87,58.18-62.12C561.27,240,578,217.87,600.35,201.15Z"/><path class="cls-1" d="M693.06,290.38c-4.22-4.3-6.79-4.67-11.69-.37-19.45,17-41.85,20.53-65,9.48s-34.25-30.67-34.26-56.4V234l-37.74,41c-3.51,4-3.82,7.34-1.8,12.25,25.63,62.39,104.21,86.06,159.54,47.73,6.63-4.61,12.51-10.31,20.14-16.67C711.59,308.17,702.08,299.53,693.06,290.38Z"/></svg>